<svg width="20" height="21" viewBox="0 0 20 21" fill="none" xmlns="http://www.w3.org/2000/svg">
<path d="M19.4574 0.218899C19.852 0.492337 20.059 0.964993 19.9848 1.43765L17.4848 17.6876C17.4262 18.0666 17.1957 18.3986 16.8598 18.5861C16.5238 18.7736 16.1215 18.797 15.766 18.6486L11.0942 16.7072L8.41838 19.6017C8.07072 19.9806 7.52384 20.1056 7.04338 19.9181C6.56291 19.7306 6.25041 19.2658 6.25041 18.7501V15.4845C6.25041 15.3283 6.309 15.1798 6.41447 15.0666L12.9613 7.92202C13.1879 7.67593 13.1801 7.29702 12.9457 7.06265C12.7113 6.82827 12.3324 6.81265 12.0863 7.03531L4.14103 14.0939L0.691813 12.3673C0.277751 12.1603 0.0121256 11.7462 0.000406857 11.2853C-0.0113119 10.8244 0.230876 10.3947 0.629313 10.1642L18.1293 0.164212C18.5473 -0.0740694 19.0629 -0.0506319 19.4574 0.218899Z" fill="#9CA3AF"/>
</svg>
