<svg width="16" height="17" viewBox="0 0 16 17" fill="none" xmlns="http://www.w3.org/2000/svg">
<path d="M13.0008 6.5004C13.0008 7.93486 12.5351 9.25994 11.7507 10.335L15.7072 14.2946C16.0979 14.6853 16.0979 15.3197 15.7072 15.7103C15.3166 16.101 14.6821 16.101 14.2915 15.7103L10.335 11.7507C9.25994 12.5383 7.93486 13.0008 6.5004 13.0008C2.90955 13.0008 0 10.0912 0 6.5004C0 2.90955 2.90955 0 6.5004 0C10.0912 0 13.0008 2.90955 13.0008 6.5004ZM6.5004 11.0007C7.09138 11.0007 7.67658 10.8843 8.22258 10.6581C8.76858 10.4319 9.26468 10.1005 9.68257 9.68257C10.1005 9.26468 10.4319 8.76858 10.6581 8.22258C10.8843 7.67658 11.0007 7.09138 11.0007 6.5004C11.0007 5.90941 10.8843 5.32421 10.6581 4.77822C10.4319 4.23222 10.1005 3.73611 9.68257 3.31822C9.26468 2.90033 8.76858 2.56885 8.22258 2.34269C7.67658 2.11653 7.09138 2.00012 6.5004 2.00012C5.90941 2.00012 5.32421 2.11653 4.77822 2.34269C4.23222 2.56885 3.73611 2.90033 3.31822 3.31822C2.90033 3.73611 2.56884 4.23222 2.34268 4.77822C2.11652 5.32421 2.00012 5.90941 2.00012 6.5004C2.00012 7.09138 2.11652 7.67658 2.34268 8.22258C2.56884 8.76858 2.90033 9.26468 3.31822 9.68257C3.73611 10.1005 4.23222 10.4319 4.77822 10.6581C5.32421 10.8843 5.90941 11.0007 6.5004 11.0007Z" fill="#6B7280"/>
</svg>
