<svg width="18" height="20" viewBox="0 0 18 20" fill="none" xmlns="http://www.w3.org/2000/svg">
<path d="M14.4484 2.98299C13.4691 2.00371 11.8798 2.00371 10.9005 2.98299L3.51578 10.3677C1.82612 12.0574 1.82612 14.7946 3.51578 16.4842C5.20544 18.1739 7.94261 18.1739 9.63227 16.4842L15.7327 10.3838C16.1702 9.94632 16.8846 9.94632 17.322 10.3838C17.7595 10.8213 17.7595 11.5356 17.322 11.9731L11.2216 18.0735C8.65299 20.6422 4.49506 20.6422 1.92645 18.0735C-0.642151 15.5049 -0.642151 11.347 1.92645 8.77841L9.31119 1.39367C11.1694 -0.464556 14.1795 -0.464556 16.0377 1.39367C17.8959 3.25189 17.8959 6.26198 16.0377 8.1202L8.97406 15.1839C7.82622 16.3317 5.96398 16.3317 4.81613 15.1839C3.66829 14.036 3.66829 12.1738 4.81613 11.0259L10.5955 5.24658C11.033 4.80911 11.7474 4.80911 12.1848 5.24658C12.6223 5.68404 12.6223 6.39843 12.1848 6.8359L6.40546 12.6153C6.13656 12.8842 6.13656 13.3256 6.40546 13.5945C6.67436 13.8634 7.11584 13.8634 7.38474 13.5945L14.4484 6.53088C15.4277 5.5516 15.4277 3.96227 14.4484 2.98299Z" fill="#9CA3AF"/>
</svg>
